<svg width="20" height="21" viewBox="0 0 20 21" fill="none" xmlns="http://www.w3.org/2000/svg">
<path d="M10.75 9.25C10.25 9.125 9.75 8.875 9.375 8.5C9 8.375 8.875 8 8.875 7.75C8.875 7.5 9 7.125 9.25 7C9.625 6.75 10 6.5 10.375 6.625C11.125 6.625 11.75 7 12.125 7.5L13.25 6C12.875 5.625 12.5 5.375 12.125 5.125C11.75 4.875 11.25 4.75 10.75 4.75V3H9.25V4.75C8.625 4.875 8 5.25 7.5 5.75C7 6.375 6.625 7.125 6.75 7.875C6.75 8.625 7 9.375 7.5 9.875C8.125 10.5 9 10.875 9.75 11.25C10.125 11.375 10.625 11.625 11 11.875C11.25 12.125 11.375 12.5 11.375 12.875C11.375 13.25 11.25 13.625 11 14C10.625 14.375 10.125 14.5 9.75 14.5C9.25 14.5 8.625 14.375 8.25 14C7.875 13.75 7.5 13.375 7.25 13L6 14.375C6.375 14.875 6.75 15.25 7.25 15.625C7.875 16 8.625 16.375 9.375 16.375V18H10.75V16.125C11.5 16 12.125 15.625 12.625 15.125C13.25 14.5 13.625 13.5 13.625 12.625C13.625 11.875 13.375 11 12.75 10.5C12.125 9.875 11.5 9.5 10.75 9.25ZM10 0.5C4.5 0.5 0 5 0 10.5C0 16 4.5 20.5 10 20.5C15.5 20.5 20 16 20 10.5C20 5 15.5 0.5 10 0.5ZM10 19.125C5.25 19.125 1.375 15.25 1.375 10.5C1.375 5.75 5.25 1.875 10 1.875C14.75 1.875 18.625 5.75 18.625 10.5C18.625 15.25 14.75 19.125 10 19.125Z" fill="#363636"/>
</svg>
